<svg width="25" height="24" viewBox="0 0 25 24" fill="none" xmlns="http://www.w3.org/2000/svg">
<path d="M5.76904 10.5C5.76657 9.61446 5.93885 8.73712 6.27603 7.91826C6.6132 7.09941 7.10864 6.35513 7.73394 5.72807C8.35925 5.10101 9.10214 4.6035 9.92006 4.26404C10.738 3.92458 11.6148 3.74985 12.5004 3.74985C13.3859 3.74985 14.2628 3.92458 15.0807 4.26404C15.8986 4.6035 16.6415 5.10101 17.2668 5.72807C17.8921 6.35513 18.3876 7.09941 18.7247 7.91826C19.0619 8.73712 19.2342 9.61446 19.2317 10.5V10.5C19.2317 13.8577 19.9342 15.8062 20.5529 16.8711C20.6196 16.9849 20.6551 17.1142 20.6558 17.2461C20.6565 17.378 20.6224 17.5077 20.5569 17.6222C20.4915 17.7367 20.3971 17.8319 20.2831 17.8982C20.1691 17.9646 20.0397 17.9997 19.9078 18H5.09222C4.96034 17.9997 4.83087 17.9646 4.71689 17.8982C4.6029 17.8319 4.50844 17.7366 4.44301 17.6221C4.37759 17.5076 4.34352 17.3778 4.34425 17.246C4.34498 17.1141 4.38048 16.9847 4.44716 16.8709C5.06622 15.806 5.76904 13.8576 5.76904 10.5H5.76904Z" stroke="#212833" stroke-width="1.5" stroke-linecap="round" stroke-linejoin="round"/>
<path d="M9.5 18V18.75C9.5 19.5456 9.81607 20.3087 10.3787 20.8713C10.9413 21.4339 11.7044 21.75 12.5 21.75C13.2956 21.75 14.0587 21.4339 14.6213 20.8713C15.1839 20.3087 15.5 19.5456 15.5 18.75V18" stroke="#212833" stroke-width="1.5" stroke-linecap="round" stroke-linejoin="round"/>
<path d="M17.6968 2.2489C19.2229 3.21233 20.4531 4.57872 21.2516 6.19724" stroke="#212833" stroke-width="1.5" stroke-linecap="round" stroke-linejoin="round"/>
<path d="M3.74854 6.19724C4.54705 4.57872 5.77728 3.21233 7.30339 2.2489" stroke="#212833" stroke-width="1.5" stroke-linecap="round" stroke-linejoin="round"/>
</svg>
