<svg width="25" height="24" viewBox="0 0 25 24" fill="none" xmlns="http://www.w3.org/2000/svg">
<path d="M8 21.75C8.82843 21.75 9.5 21.0784 9.5 20.25C9.5 19.4216 8.82843 18.75 8 18.75C7.17157 18.75 6.5 19.4216 6.5 20.25C6.5 21.0784 7.17157 21.75 8 21.75Z" fill="#212833"/>
<path d="M17.75 21.75C18.5784 21.75 19.25 21.0784 19.25 20.25C19.25 19.4216 18.5784 18.75 17.75 18.75C16.9216 18.75 16.25 19.4216 16.25 20.25C16.25 21.0784 16.9216 21.75 17.75 21.75Z" fill="#212833"/>
<path d="M4.46429 6.75H21.2857L18.8108 15.4121C18.7213 15.7255 18.5321 16.0012 18.2718 16.1975C18.0116 16.3938 17.6945 16.5 17.3685 16.5H8.38145C8.05549 16.5 7.73839 16.3938 7.47816 16.1975C7.21792 16.0012 7.02872 15.7255 6.93917 15.4121L3.54827 3.54396C3.5035 3.38725 3.40889 3.24939 3.27878 3.15124C3.14866 3.05309 2.99011 3 2.82713 3H1.25" stroke="#212833" stroke-width="1.5" stroke-linecap="round" stroke-linejoin="round"/>
</svg>
