<svg width="50" height="26" viewBox="0 0 50 26" fill="none" xmlns="http://www.w3.org/2000/svg">
<mask id="path-1-outside-1" maskUnits="userSpaceOnUse" x="0" y="0" width="50" height="26" fill="black">
<rect fill="white" width="50" height="26"/>
<path fill-rule="evenodd" clip-rule="evenodd" d="M16.6503 6.66514C16.8241 6.14191 17.3905 5.85827 17.9152 6.03162L19.1365 6.43508C20.1585 6.77268 21.2624 6.77268 22.2844 6.43508L23.5057 6.03162C24.0304 5.85827 24.5968 6.14191 24.7706 6.66514C24.9445 7.18838 24.66 7.75307 24.1353 7.92642L22.9139 8.32989C21.4832 8.80253 19.9377 8.80253 18.507 8.32989L17.2856 7.92642C16.7609 7.75307 16.4764 7.18838 16.6503 6.66514Z"/>
<path fill-rule="evenodd" clip-rule="evenodd" d="M29.0904 6.66514C29.2642 6.14191 29.8306 5.85827 30.3553 6.03162L31.5766 6.43508C32.5986 6.77268 33.7025 6.77268 34.7245 6.43508L35.9458 6.03162C36.4705 5.85827 37.0368 6.14191 37.2107 6.66514C37.3845 7.18838 37.1001 7.75307 36.5753 7.92642L35.354 8.32988C33.9233 8.80253 32.3778 8.80253 30.947 8.32988L29.7257 7.92642C29.201 7.75307 28.9165 7.18838 29.0904 6.66514Z"/>
<path d="M8.07489 25C6.51756 25 5.20489 24.7589 4.13698 24.2767C3.09139 23.7726 2.30151 23.2028 1.76756 22.5671C1.25592 21.9315 1 21.4054 1 20.989C1 20.7699 1.0779 20.6055 1.2336 20.4959C1.41162 20.3644 1.58964 20.2986 1.76756 20.2986H3.2693C3.49185 20.2986 3.69209 20.4082 3.87 20.6274C4.40396 21.2411 4.98245 21.7233 5.60536 22.074C6.22838 22.4246 7.06267 22.6 8.10826 22.6C9.26523 22.6 10.1997 22.3809 10.9119 21.9425C11.6461 21.4822 12.0132 20.8575 12.0132 20.0685C12.0132 19.5425 11.8568 19.1151 11.546 18.7863C11.2561 18.4356 10.7451 18.1398 10.0109 17.8986C9.29861 17.6356 8.2307 17.3507 6.80675 17.0438C4.87116 16.6274 3.49185 16.0247 2.66861 15.2356C1.86767 14.4466 1.46721 13.4274 1.46721 12.1781C1.46721 11.3452 1.71197 10.5561 2.2014 9.81096C2.71314 9.0438 3.44733 8.43014 4.40396 7.96986C5.38291 7.48771 6.55093 7.24658 7.90803 7.24658C9.33198 7.24658 10.5449 7.47672 11.546 7.93699C12.5472 8.39726 13.2918 8.94518 13.7819 9.58083C14.293 10.1945 14.5495 10.7096 14.5495 11.126C14.5495 11.3233 14.4713 11.4877 14.3159 11.6192C14.1824 11.7507 14.0156 11.8164 13.8153 11.8164H12.4137C12.1467 11.8164 11.9235 11.7068 11.7462 11.4877C11.3896 11.0713 11.0788 10.7534 10.8118 10.5343C10.5668 10.2931 10.1997 10.085 9.71054 9.90959C9.24292 9.73421 8.64222 9.64658 7.90803 9.64658C6.84012 9.64658 6.01698 9.87671 5.43849 10.337C4.86011 10.7754 4.57082 11.3562 4.57082 12.0795C4.57082 12.5397 4.69325 12.9342 4.93791 13.263C5.18267 13.5699 5.64988 13.8548 6.33954 14.1178C7.05152 14.3808 8.0749 14.6548 9.4102 14.9397C11.5231 15.3781 13.0144 16.0137 13.8821 16.8466C14.7716 17.6575 15.217 18.6987 15.217 19.9699C15.217 20.9123 14.9385 21.7671 14.3827 22.5342C13.8258 23.3014 13.0029 23.9041 11.9131 24.3425C10.8452 24.7809 9.56559 25 8.07489 25ZM25.554 25C23.4401 25 21.8048 24.3315 20.6483 22.9945C19.4917 21.6356 18.9129 19.8384 18.9129 17.6027V8.33151C18.9129 8.11237 18.9797 7.93699 19.1132 7.80548C19.2685 7.65209 19.4584 7.57535 19.6805 7.57535H21.3491C21.7464 7.57535 22.1167 7.93532 22.1167 8.33151V17.4384C22.1167 20.7041 23.5631 22.337 26.455 22.337C27.8567 22.337 28.9694 21.9096 29.7922 21.0548C30.6151 20.1781 31.027 18.9726 31.027 17.4384V8.33151C31.027 8.11237 31.0938 7.93699 31.2273 7.80548C31.3826 7.65209 31.5724 7.57535 31.7946 7.57535H33.4632C33.6853 7.57535 33.8636 7.65209 33.9971 7.80548C34.1306 7.93699 34.1974 8.11237 34.1974 8.33151V23.9151C34.1974 24.1342 34.1306 24.3206 33.9971 24.474C33.8636 24.6055 33.6853 24.6712 33.4632 24.6712H31.8947C31.4895 24.6712 31.1271 24.3191 31.1271 23.9151C31.1271 23.4533 30.4938 23.2259 30.1428 23.5272C29.7508 23.8637 29.3224 24.1464 28.8578 24.3753C27.9682 24.7917 26.867 25 25.554 25ZM22.8175 4.25479C22.5953 4.25479 22.417 4.18904 22.2835 4.05754C22.15 3.92603 22.0833 3.75065 22.0833 3.53151V1.75617C22.0833 1.53702 22.15 1.36164 22.2835 1.23014C22.417 1.07675 22.5953 1 22.8175 1H24.6529C25.0503 1 25.4205 1.35998 25.4205 1.75617V3.53151C25.4205 3.75065 25.3423 3.92603 25.1869 4.05754C25.0534 4.18904 24.8751 4.25479 24.6529 4.25479H22.8175ZM28.4907 4.25479C28.2686 4.25479 28.0788 4.18904 27.9234 4.05754C27.7899 3.92603 27.7232 3.75065 27.7232 3.53151V1.75617C27.7232 1.53702 27.7899 1.36164 27.9234 1.23014C28.0788 1.07675 28.2686 1 28.4907 1H30.2928C30.6902 1 31.0604 1.35998 31.0604 1.75617V3.53151C31.0604 3.75065 30.9822 3.92603 30.8268 4.05754C30.6933 4.18904 30.515 4.25479 30.2928 4.25479H28.4907ZM45.9298 24.6712C42.4142 24.6712 40.657 22.7425 40.657 18.8849V10.9407C40.657 10.5346 40.3268 10.2055 39.9196 10.2055H38.0539C37.6487 10.2055 37.2864 9.85337 37.2864 9.44932V8.33151C37.2864 8.11237 37.3531 7.93699 37.4866 7.80548C37.642 7.65209 37.8318 7.57535 38.0539 7.57535H40.3013C40.4977 7.57535 40.657 7.41656 40.657 7.2207V2.08493C40.657 1.86579 40.7237 1.69041 40.8572 1.55891C41.0126 1.40552 41.2024 1.32877 41.4245 1.32877H42.993C43.3904 1.32877 43.7606 1.68875 43.7606 2.08493V7.2207C43.7606 7.41656 43.9198 7.57535 44.1162 7.57535H47.8987C48.2961 7.57535 48.6663 7.93532 48.6663 8.33151V9.44932C48.6663 9.66846 48.5881 9.85483 48.4327 10.0082C48.2992 10.1397 48.1209 10.2055 47.8987 10.2055H44.4979C44.0907 10.2055 43.7606 10.5346 43.7606 10.9407V18.6548C43.7606 19.7507 43.9493 20.5835 44.3279 21.1534C44.7065 21.7013 45.3291 21.9753 46.1967 21.9753H48.2324C48.6298 21.9753 49 22.3353 49 22.7315V23.9151C49 24.1342 48.9218 24.3206 48.7664 24.474C48.6329 24.6055 48.4546 24.6712 48.2324 24.6712H45.9298Z"/>
</mask>
<path fill-rule="evenodd" clip-rule="evenodd" d="M16.6503 6.66514C16.8241 6.14191 17.3905 5.85827 17.9152 6.03162L19.1365 6.43508C20.1585 6.77268 21.2624 6.77268 22.2844 6.43508L23.5057 6.03162C24.0304 5.85827 24.5968 6.14191 24.7706 6.66514C24.9445 7.18838 24.66 7.75307 24.1353 7.92642L22.9139 8.32989C21.4832 8.80253 19.9377 8.80253 18.507 8.32989L17.2856 7.92642C16.7609 7.75307 16.4764 7.18838 16.6503 6.66514Z" fill="#17C878"/>
<path fill-rule="evenodd" clip-rule="evenodd" d="M29.0904 6.66514C29.2642 6.14191 29.8306 5.85827 30.3553 6.03162L31.5766 6.43508C32.5986 6.77268 33.7025 6.77268 34.7245 6.43508L35.9458 6.03162C36.4705 5.85827 37.0368 6.14191 37.2107 6.66514C37.3845 7.18838 37.1001 7.75307 36.5753 7.92642L35.354 8.32988C33.9233 8.80253 32.3778 8.80253 30.947 8.32988L29.7257 7.92642C29.201 7.75307 28.9165 7.18838 29.0904 6.66514Z" fill="#17C878"/>
<path d="M8.07489 25C6.51756 25 5.20489 24.7589 4.13698 24.2767C3.09139 23.7726 2.30151 23.2028 1.76756 22.5671C1.25592 21.9315 1 21.4054 1 20.989C1 20.7699 1.0779 20.6055 1.2336 20.4959C1.41162 20.3644 1.58964 20.2986 1.76756 20.2986H3.2693C3.49185 20.2986 3.69209 20.4082 3.87 20.6274C4.40396 21.2411 4.98245 21.7233 5.60536 22.074C6.22838 22.4246 7.06267 22.6 8.10826 22.6C9.26523 22.6 10.1997 22.3809 10.9119 21.9425C11.6461 21.4822 12.0132 20.8575 12.0132 20.0685C12.0132 19.5425 11.8568 19.1151 11.546 18.7863C11.2561 18.4356 10.7451 18.1398 10.0109 17.8986C9.29861 17.6356 8.2307 17.3507 6.80675 17.0438C4.87116 16.6274 3.49185 16.0247 2.66861 15.2356C1.86767 14.4466 1.46721 13.4274 1.46721 12.1781C1.46721 11.3452 1.71197 10.5561 2.2014 9.81096C2.71314 9.0438 3.44733 8.43014 4.40396 7.96986C5.38291 7.48771 6.55093 7.24658 7.90803 7.24658C9.33198 7.24658 10.5449 7.47672 11.546 7.93699C12.5472 8.39726 13.2918 8.94518 13.7819 9.58083C14.293 10.1945 14.5495 10.7096 14.5495 11.126C14.5495 11.3233 14.4713 11.4877 14.3159 11.6192C14.1824 11.7507 14.0156 11.8164 13.8153 11.8164H12.4137C12.1467 11.8164 11.9235 11.7068 11.7462 11.4877C11.3896 11.0713 11.0788 10.7534 10.8118 10.5343C10.5668 10.2931 10.1997 10.085 9.71054 9.90959C9.24292 9.73421 8.64222 9.64658 7.90803 9.64658C6.84012 9.64658 6.01698 9.87671 5.43849 10.337C4.86011 10.7754 4.57082 11.3562 4.57082 12.0795C4.57082 12.5397 4.69325 12.9342 4.93791 13.263C5.18267 13.5699 5.64988 13.8548 6.33954 14.1178C7.05152 14.3808 8.0749 14.6548 9.4102 14.9397C11.5231 15.3781 13.0144 16.0137 13.8821 16.8466C14.7716 17.6575 15.217 18.6987 15.217 19.9699C15.217 20.9123 14.9385 21.7671 14.3827 22.5342C13.8258 23.3014 13.0029 23.9041 11.9131 24.3425C10.8452 24.7809 9.56559 25 8.07489 25ZM25.554 25C23.4401 25 21.8048 24.3315 20.6483 22.9945C19.4917 21.6356 18.9129 19.8384 18.9129 17.6027V8.33151C18.9129 8.11237 18.9797 7.93699 19.1132 7.80548C19.2685 7.65209 19.4584 7.57535 19.6805 7.57535H21.3491C21.7464 7.57535 22.1167 7.93532 22.1167 8.33151V17.4384C22.1167 20.7041 23.5631 22.337 26.455 22.337C27.8567 22.337 28.9694 21.9096 29.7922 21.0548C30.6151 20.1781 31.027 18.9726 31.027 17.4384V8.33151C31.027 8.11237 31.0938 7.93699 31.2273 7.80548C31.3826 7.65209 31.5724 7.57535 31.7946 7.57535H33.4632C33.6853 7.57535 33.8636 7.65209 33.9971 7.80548C34.1306 7.93699 34.1974 8.11237 34.1974 8.33151V23.9151C34.1974 24.1342 34.1306 24.3206 33.9971 24.474C33.8636 24.6055 33.6853 24.6712 33.4632 24.6712H31.8947C31.4895 24.6712 31.1271 24.3191 31.1271 23.9151C31.1271 23.4533 30.4938 23.2259 30.1428 23.5272C29.7508 23.8637 29.3224 24.1464 28.8578 24.3753C27.9682 24.7917 26.867 25 25.554 25ZM22.8175 4.25479C22.5953 4.25479 22.417 4.18904 22.2835 4.05754C22.15 3.92603 22.0833 3.75065 22.0833 3.53151V1.75617C22.0833 1.53702 22.15 1.36164 22.2835 1.23014C22.417 1.07675 22.5953 1 22.8175 1H24.6529C25.0503 1 25.4205 1.35998 25.4205 1.75617V3.53151C25.4205 3.75065 25.3423 3.92603 25.1869 4.05754C25.0534 4.18904 24.8751 4.25479 24.6529 4.25479H22.8175ZM28.4907 4.25479C28.2686 4.25479 28.0788 4.18904 27.9234 4.05754C27.7899 3.92603 27.7232 3.75065 27.7232 3.53151V1.75617C27.7232 1.53702 27.7899 1.36164 27.9234 1.23014C28.0788 1.07675 28.2686 1 28.4907 1H30.2928C30.6902 1 31.0604 1.35998 31.0604 1.75617V3.53151C31.0604 3.75065 30.9822 3.92603 30.8268 4.05754C30.6933 4.18904 30.515 4.25479 30.2928 4.25479H28.4907ZM45.9298 24.6712C42.4142 24.6712 40.657 22.7425 40.657 18.8849V10.9407C40.657 10.5346 40.3268 10.2055 39.9196 10.2055H38.0539C37.6487 10.2055 37.2864 9.85337 37.2864 9.44932V8.33151C37.2864 8.11237 37.3531 7.93699 37.4866 7.80548C37.642 7.65209 37.8318 7.57535 38.0539 7.57535H40.3013C40.4977 7.57535 40.657 7.41656 40.657 7.2207V2.08493C40.657 1.86579 40.7237 1.69041 40.8572 1.55891C41.0126 1.40552 41.2024 1.32877 41.4245 1.32877H42.993C43.3904 1.32877 43.7606 1.68875 43.7606 2.08493V7.2207C43.7606 7.41656 43.9198 7.57535 44.1162 7.57535H47.8987C48.2961 7.57535 48.6663 7.93532 48.6663 8.33151V9.44932C48.6663 9.66846 48.5881 9.85483 48.4327 10.0082C48.2992 10.1397 48.1209 10.2055 47.8987 10.2055H44.4979C44.0907 10.2055 43.7606 10.5346 43.7606 10.9407V18.6548C43.7606 19.7507 43.9493 20.5835 44.3279 21.1534C44.7065 21.7013 45.3291 21.9753 46.1967 21.9753H48.2324C48.6298 21.9753 49 22.3353 49 22.7315V23.9151C49 24.1342 48.9218 24.3206 48.7664 24.474C48.6329 24.6055 48.4546 24.6712 48.2324 24.6712H45.9298Z" fill="#17C878"/>
<path d="M16.6503 6.66514L16.7452 6.69667L16.7452 6.69667L16.6503 6.66514ZM17.9152 6.03162L17.8838 6.12657L17.8838 6.12657L17.9152 6.03162ZM19.1365 6.43508L19.1679 6.34013L19.1679 6.34013L19.1365 6.43508ZM22.2844 6.43508L22.253 6.34013L22.253 6.34013L22.2844 6.43508ZM23.5057 6.03162L23.5371 6.12657L23.5371 6.12657L23.5057 6.03162ZM24.7706 6.66514L24.8655 6.63361L24.8655 6.63361L24.7706 6.66514ZM24.1353 7.92642L24.1039 7.83147L24.1039 7.83147L24.1353 7.92642ZM22.9139 8.32989L22.9453 8.42484L22.9453 8.42484L22.9139 8.32989ZM18.507 8.32989L18.4756 8.42484L18.4756 8.42484L18.507 8.32989ZM17.2856 7.92642L17.317 7.83147L17.317 7.83147L17.2856 7.92642ZM29.0904 6.66514L29.1853 6.69667L29.1853 6.69667L29.0904 6.66514ZM30.3553 6.03162L30.3239 6.12657L30.3239 6.12657L30.3553 6.03162ZM31.5766 6.43508L31.608 6.34012L31.608 6.34012L31.5766 6.43508ZM34.7245 6.43508L34.6931 6.34012L34.6931 6.34012L34.7245 6.43508ZM35.9458 6.03162L35.9771 6.12657L35.9771 6.12657L35.9458 6.03162ZM37.2107 6.66514L37.1158 6.69667L37.1158 6.69667L37.2107 6.66514ZM36.5753 7.92642L36.6067 8.02137L36.6067 8.02137L36.5753 7.92642ZM35.354 8.32988L35.3227 8.23493L35.3227 8.23493L35.354 8.32988ZM30.947 8.32988L30.9784 8.23493L30.9784 8.23493L30.947 8.32988ZM29.7257 7.92642L29.6944 8.02137L29.6944 8.02137L29.7257 7.92642ZM4.13698 24.2767L4.09353 24.3668L4.09583 24.3679L4.13698 24.2767ZM1.76756 22.5671L1.68964 22.6298L1.69099 22.6314L1.76756 22.5671ZM1.2336 20.4959L1.29119 20.5777L1.29302 20.5763L1.2336 20.4959ZM3.87 20.6274L3.79232 20.6905L3.79456 20.693L3.87 20.6274ZM5.60536 22.074L5.5563 22.1611L5.55631 22.1611L5.60536 22.074ZM10.9119 21.9425L10.9644 22.0276L10.9651 22.0272L10.9119 21.9425ZM11.546 18.7863L11.4688 18.8502L11.4733 18.855L11.546 18.7863ZM10.0109 17.8986L9.97623 17.9925L9.97969 17.9936L10.0109 17.8986ZM6.80675 17.0438L6.82782 16.9461L6.82778 16.9461L6.80675 17.0438ZM2.66861 15.2356L2.59842 15.3069L2.59941 15.3078L2.66861 15.2356ZM2.2014 9.81096L2.11821 9.75547L2.11781 9.75606L2.2014 9.81096ZM4.40396 7.96986L4.44732 8.05998L4.44814 8.05957L4.40396 7.96986ZM13.7819 9.58083L13.7027 9.64193L13.7051 9.64482L13.7819 9.58083ZM14.3159 11.6192L14.2511 11.5426L14.2457 11.5479L14.3159 11.6192ZM11.7462 11.4877L11.824 11.4248L11.8222 11.4226L11.7462 11.4877ZM10.8118 10.5343L10.7414 10.6058L10.7484 10.6115L10.8118 10.5343ZM9.71054 9.90959L9.67542 10.0032L9.67679 10.0037L9.71054 9.90959ZM5.43849 10.337L5.49892 10.4167L5.50076 10.4152L5.43849 10.337ZM4.93791 13.263L4.85764 13.3228L4.85973 13.3254L4.93791 13.263ZM6.33954 14.1178L6.30391 14.2113L6.30489 14.2116L6.33954 14.1178ZM9.4102 14.9397L9.38934 15.0375L9.38989 15.0376L9.4102 14.9397ZM13.8821 16.8466L13.8128 16.9187L13.8147 16.9205L13.8821 16.8466ZM14.3827 22.5342L14.4636 22.593L14.4636 22.5929L14.3827 22.5342ZM11.9131 24.3425L11.8758 24.2497L11.8751 24.25L11.9131 24.3425ZM20.6483 22.9945L20.5721 23.0593L20.5726 23.0599L20.6483 22.9945ZM19.1132 7.80548L19.1833 7.87672L19.1834 7.87665L19.1132 7.80548ZM29.7922 21.0548L29.8643 21.1241L29.8652 21.1232L29.7922 21.0548ZM31.2273 7.80548L31.2974 7.87672L31.2975 7.87665L31.2273 7.80548ZM33.9971 7.80548L33.9215 7.87132L33.927 7.87672L33.9971 7.80548ZM33.9971 24.474L34.0675 24.5454L34.0726 24.5396L33.9971 24.474ZM28.8578 24.3753L28.9002 24.4659L28.902 24.465L28.8578 24.3753ZM22.2835 1.23014L22.3539 1.30158L22.3589 1.29578L22.2835 1.23014ZM25.1869 4.05754L25.1221 3.98099L25.1167 3.9863L25.1869 4.05754ZM27.9234 4.05754L27.853 4.12898L27.8588 4.13387L27.9234 4.05754ZM27.9234 1.23014L27.9936 1.30137L27.9937 1.3013L27.9234 1.23014ZM30.8268 4.05754L30.762 3.98099L30.7566 3.9863L30.8268 4.05754ZM37.4866 7.80548L37.5568 7.87672L37.5569 7.87665L37.4866 7.80548ZM40.8572 1.55891L40.9274 1.63014L40.9275 1.63007L40.8572 1.55891ZM48.4327 10.0082L48.5029 10.0795L48.5029 10.0794L48.4327 10.0082ZM44.3279 21.1534L44.2446 21.2088L44.2456 21.2103L44.3279 21.1534ZM48.7664 24.474L48.8366 24.5452L48.8367 24.5451L48.7664 24.474ZM30.1428 23.5272L30.2079 23.6031L30.2079 23.6031L30.1428 23.5272ZM16.7452 6.69667C16.9016 6.22599 17.4113 5.97046 17.8838 6.12657L17.9466 5.93666C17.3697 5.74608 16.7467 6.05782 16.5554 6.63361L16.7452 6.69667ZM17.8838 6.12657L19.1052 6.53003L19.1679 6.34013L17.9466 5.93666L17.8838 6.12657ZM19.1052 6.53003C20.1475 6.87437 21.2734 6.87437 22.3157 6.53003L22.253 6.34013C21.2514 6.671 20.1695 6.671 19.1679 6.34013L19.1052 6.53003ZM22.3157 6.53003L23.5371 6.12657L23.4743 5.93666L22.253 6.34013L22.3157 6.53003ZM23.5371 6.12657C24.0096 5.97046 24.5193 6.22599 24.6757 6.69667L24.8655 6.63361C24.6742 6.05782 24.0512 5.74608 23.4743 5.93666L23.5371 6.12657ZM24.6757 6.69667C24.8321 7.16723 24.5763 7.6754 24.1039 7.83147L24.1666 8.02137C24.7437 7.83075 25.0569 7.20953 24.8655 6.63361L24.6757 6.69667ZM24.1039 7.83147L22.8826 8.23493L22.9453 8.42484L24.1666 8.02137L24.1039 7.83147ZM22.8826 8.23493C21.4722 8.70085 19.9487 8.70085 18.5383 8.23493L18.4756 8.42484C19.9267 8.90422 21.4942 8.90422 22.9453 8.42484L22.8826 8.23493ZM18.5383 8.23493L17.317 7.83147L17.2543 8.02137L18.4756 8.42484L18.5383 8.23493ZM17.317 7.83147C16.8446 7.6754 16.5888 7.16723 16.7452 6.69667L16.5554 6.63361C16.364 7.20953 16.6772 7.83075 17.2543 8.02137L17.317 7.83147ZM29.1853 6.69667C29.3417 6.22599 29.8514 5.97046 30.3239 6.12657L30.3867 5.93666C29.8098 5.74608 29.1868 6.05782 28.9955 6.63361L29.1853 6.69667ZM30.3239 6.12657L31.5452 6.53003L31.608 6.34012L30.3867 5.93666L30.3239 6.12657ZM31.5452 6.53003C32.5876 6.87436 33.7135 6.87436 34.7558 6.53003L34.6931 6.34012C33.6915 6.671 32.6096 6.671 31.608 6.34012L31.5452 6.53003ZM34.7558 6.53003L35.9771 6.12657L35.9144 5.93666L34.6931 6.34012L34.7558 6.53003ZM35.9771 6.12657C36.4497 5.97046 36.9594 6.22599 37.1158 6.69667L37.3056 6.63361C37.1143 6.05782 36.4913 5.74608 35.9144 5.93666L35.9771 6.12657ZM37.1158 6.69667C37.2721 7.16723 37.0164 7.6754 36.544 7.83147L36.6067 8.02137C37.1837 7.83075 37.4969 7.20953 37.3056 6.63361L37.1158 6.69667ZM36.544 7.83147L35.3227 8.23493L35.3854 8.42483L36.6067 8.02137L36.544 7.83147ZM35.3227 8.23493C33.9123 8.70085 32.3888 8.70085 30.9784 8.23493L30.9157 8.42483C32.3668 8.90421 33.9343 8.90421 35.3854 8.42483L35.3227 8.23493ZM30.9784 8.23493L29.7571 7.83147L29.6944 8.02137L30.9157 8.42483L30.9784 8.23493ZM29.7571 7.83147C29.2847 7.6754 29.0289 7.16723 29.1853 6.69667L28.9955 6.63361C28.8041 7.20953 29.1173 7.83075 29.6944 8.02137L29.7571 7.83147ZM8.07489 24.9C6.52731 24.9 5.22959 24.6603 4.17813 24.1856L4.09583 24.3679C5.18018 24.8574 6.50781 25.1 8.07489 25.1V24.9ZM4.18041 24.1866C3.14281 23.6863 2.36611 23.1242 1.84413 22.5028L1.69099 22.6314C2.23691 23.2813 3.03996 23.8588 4.09355 24.3668L4.18041 24.1866ZM1.84546 22.5044C1.33642 21.872 1.1 21.3692 1.1 20.989H0.9C0.9 21.4417 1.17542 21.9909 1.68966 22.6298L1.84546 22.5044ZM1.1 20.989C1.1 20.7968 1.16637 20.6655 1.29117 20.5777L1.17604 20.4141C0.989434 20.5455 0.9 20.743 0.9 20.989H1.1ZM1.29302 20.5763C1.45809 20.4544 1.61578 20.3986 1.76756 20.3986V20.1986C1.56351 20.1986 1.36516 20.2744 1.17419 20.4155L1.29302 20.5763ZM1.76756 20.3986H3.2693V20.1986H1.76756V20.3986ZM3.2693 20.3986C3.4539 20.3986 3.62789 20.4878 3.79237 20.6904L3.94764 20.5644C3.75629 20.3287 3.5298 20.1986 3.2693 20.1986V20.3986ZM3.79456 20.693C4.335 21.3141 4.92216 21.8041 5.5563 22.1611L5.65441 21.9868C5.04273 21.6425 4.47292 21.168 3.94544 20.5618L3.79456 20.693ZM5.55631 22.1611C6.19965 22.5232 7.0529 22.7 8.10826 22.7V22.5C7.07245 22.5 6.2571 22.326 5.65441 21.9868L5.55631 22.1611ZM8.10826 22.7C9.27693 22.7 10.2314 22.4788 10.9644 22.0276L10.8595 21.8573C10.1679 22.283 9.25353 22.5 8.10826 22.5V22.7ZM10.9651 22.0272C11.725 21.5508 12.1132 20.8958 12.1132 20.0685H11.9132C11.9132 20.8192 11.5673 21.4136 10.8588 21.8577L10.9651 22.0272ZM12.1132 20.0685C12.1132 19.5212 11.9498 19.0678 11.6187 18.7176L11.4733 18.855C11.7638 19.1623 11.9132 19.5637 11.9132 20.0685H12.1132ZM11.6231 18.7226C11.3154 18.3505 10.7832 18.047 10.0421 17.8036L9.97969 17.9936C10.707 18.2325 11.1968 18.5208 11.4689 18.85L11.6231 18.7226ZM10.0455 17.8048C9.32647 17.5393 8.25301 17.2532 6.82782 16.9461L6.78568 17.1416C8.20839 17.4482 9.27075 17.7319 9.97626 17.9924L10.0455 17.8048ZM6.82778 16.9461C4.89863 16.5311 3.54109 15.9333 2.7378 15.1634L2.59941 15.3078C3.44262 16.116 4.8437 16.7238 6.78572 17.1416L6.82778 16.9461ZM2.73879 15.1644C1.95914 14.3963 1.56721 13.4039 1.56721 12.1781H1.36721C1.36721 13.4509 1.77621 14.4968 2.59843 15.3069L2.73879 15.1644ZM1.56721 12.1781C1.56721 11.3661 1.80548 10.5959 2.28498 9.86586L2.11781 9.75606C1.61847 10.5163 1.36721 11.3243 1.36721 12.1781H1.56721ZM2.28459 9.86645C2.78497 9.11633 3.50434 8.51368 4.44732 8.05998L4.3606 7.87975C3.39031 8.3466 2.64131 8.97128 2.11821 9.75547L2.28459 9.86645ZM4.44814 8.05957C5.41042 7.58563 6.56261 7.34658 7.90803 7.34658V7.14658C6.53926 7.14658 5.35541 7.38978 4.35978 7.88015L4.44814 8.05957ZM7.90803 7.34658C9.32161 7.34658 10.5194 7.57509 11.5042 8.02785L11.5878 7.84613C10.5703 7.37834 9.34235 7.14658 7.90803 7.14658V7.34658ZM11.5042 8.02785C12.4959 8.48374 13.2254 9.0229 13.7028 9.64189L13.8611 9.51976C13.3581 8.86745 12.5985 8.31079 11.5878 7.84613L11.5042 8.02785ZM13.7051 9.64482C14.2131 10.2549 14.4495 10.7466 14.4495 11.126H14.6495C14.6495 10.6726 14.3728 10.1341 13.8588 9.51684L13.7051 9.64482ZM14.4495 11.126C14.4495 11.2926 14.3852 11.4295 14.2513 11.5429L14.3805 11.6955C14.5574 11.5458 14.6495 11.354 14.6495 11.126H14.4495ZM14.2457 11.5479C14.1323 11.6597 13.9913 11.7164 13.8153 11.7164V11.9164C14.0398 11.9164 14.2325 11.8417 14.3861 11.6904L14.2457 11.5479ZM13.8153 11.7164H12.4137V11.9164H13.8153V11.7164ZM12.4137 11.7164C12.1787 11.7164 11.9834 11.6219 11.824 11.4248L11.6685 11.5506C11.8636 11.7918 12.1148 11.9164 12.4137 11.9164V11.7164ZM11.8222 11.4226C11.4638 11.0041 11.1487 10.6814 10.8753 10.457L10.7484 10.6115C11.0089 10.8254 11.3154 11.1384 11.6703 11.5527L11.8222 11.4226ZM10.882 10.463C10.6226 10.2078 10.2407 9.99345 9.7443 9.81546L9.67679 10.0037C10.1586 10.1765 10.5109 10.3784 10.7417 10.6055L10.882 10.463ZM9.74566 9.81596C9.26284 9.63488 8.64909 9.54658 7.90803 9.54658V9.74658C8.63535 9.74658 9.22299 9.83354 9.67543 10.0032L9.74566 9.81596ZM7.90803 9.54658C6.82727 9.54658 5.97878 9.77931 5.37623 10.2587L5.50076 10.4152C6.05517 9.97411 6.85297 9.74658 7.90803 9.74658V9.54658ZM5.37809 10.2573C4.77488 10.7145 4.47082 11.3247 4.47082 12.0795H4.67082C4.67082 11.3876 4.94535 10.8363 5.4989 10.4167L5.37809 10.2573ZM4.47082 12.0795C4.47082 12.5585 4.59863 12.9746 4.85768 13.3227L5.01813 13.2033C4.78787 12.8939 4.67082 12.521 4.67082 12.0795H4.47082ZM4.85973 13.3254C5.12172 13.6539 5.60993 13.9466 6.30391 14.2112L6.37518 14.0244C5.68984 13.763 5.24362 13.4859 5.01609 13.2007L4.85973 13.3254ZM6.30489 14.2116C7.02356 14.4771 8.05241 14.7523 9.38934 15.0375L9.43107 14.8419C8.09739 14.5574 7.07947 14.2845 6.37419 14.024L6.30489 14.2116ZM9.38989 15.0376C11.497 15.4748 12.9657 16.1056 13.8128 16.9187L13.9513 16.7744C13.0631 15.9218 11.5491 15.2814 9.43052 14.8418L9.38989 15.0376ZM13.8147 16.9205C14.6822 17.7113 15.117 18.725 15.117 19.9699H15.317C15.317 18.6723 14.8611 17.6037 13.9494 16.7727L13.8147 16.9205ZM15.117 19.9699C15.117 20.8911 14.8453 21.7253 14.3017 22.4756L14.4636 22.5929C15.0318 21.8088 15.317 20.9335 15.317 19.9699H15.117ZM14.3017 22.4755C13.7582 23.2242 12.9523 23.8166 11.8758 24.2497L11.9504 24.4352C13.0535 23.9915 13.8933 23.3786 14.4636 22.593L14.3017 22.4755ZM11.8751 24.25C10.8222 24.6822 9.55619 24.9 8.07489 24.9V25.1C9.57498 25.1 10.8682 24.8795 11.9511 24.435L11.8751 24.25ZM25.554 24.9C23.4629 24.9 21.8577 24.2398 20.7239 22.9291L20.5726 23.0599C21.7519 24.4232 23.4173 25.1 25.554 25.1V24.9ZM20.7244 22.9297C19.5868 21.5931 19.0129 19.8208 19.0129 17.6027H18.8129C18.8129 19.8559 19.3966 21.6781 20.5721 23.0593L20.7244 22.9297ZM19.0129 17.6027V8.33151H18.8129V17.6027H19.0129ZM19.0129 8.33151C19.0129 8.13423 19.0722 7.98624 19.1833 7.87672L19.043 7.73425C18.8872 7.88774 18.8129 8.0905 18.8129 8.33151H19.0129ZM19.1834 7.87665C19.3196 7.74218 19.484 7.67535 19.6805 7.67535V7.47535C19.4327 7.47535 19.2175 7.56201 19.0429 7.73432L19.1834 7.87665ZM19.6805 7.67535H21.3491V7.47535H19.6805V7.67535ZM22.0167 8.33151V17.4384H22.2167V8.33151H22.0167ZM22.0167 17.4384C22.0167 19.0839 22.3808 20.3367 23.1265 21.1786C23.8743 22.0229 24.9903 22.437 26.455 22.437V22.237C25.0279 22.237 23.9747 21.8346 23.2762 21.046C22.5757 20.2551 22.2167 19.0586 22.2167 17.4384H22.0167ZM26.455 22.437C27.8785 22.437 29.0192 22.0021 29.8643 21.1241L29.7202 20.9854C28.9196 21.8171 27.8348 22.237 26.455 22.237V22.437ZM29.8652 21.1232C30.7098 20.2233 31.127 18.9907 31.127 17.4384H30.927C30.927 18.9544 30.5204 20.1329 29.7193 20.9864L29.8652 21.1232ZM31.127 17.4384V8.33151H30.927V17.4384H31.127ZM31.127 8.33151C31.127 8.13423 31.1863 7.98624 31.2974 7.87672L31.1571 7.73425C31.0013 7.88774 30.927 8.0905 30.927 8.33151H31.127ZM31.2975 7.87665C31.4337 7.74217 31.5981 7.67535 31.7946 7.67535V7.47535C31.5468 7.47535 31.3316 7.56201 31.157 7.73432L31.2975 7.87665ZM31.7946 7.67535H33.4632V7.47535H31.7946V7.67535ZM33.4632 7.67535C33.6595 7.67535 33.8091 7.74178 33.9217 7.87113L34.0726 7.73984C33.9182 7.56241 33.7112 7.47535 33.4632 7.47535V7.67535ZM33.927 7.87672C34.0381 7.98624 34.0974 8.13423 34.0974 8.33151H34.2974C34.2974 8.0905 34.2231 7.88774 34.0673 7.73425L33.927 7.87672ZM34.0974 8.33151V23.9151H34.2974V8.33151H34.0974ZM34.0974 23.9151C34.0974 24.1121 34.0381 24.2746 33.9217 24.4083L34.0726 24.5396C34.2232 24.3665 34.2974 24.1563 34.2974 23.9151H34.0974ZM33.927 24.4027C33.8156 24.5124 33.6643 24.5712 33.4632 24.5712V24.7712C33.7063 24.7712 33.9117 24.6986 34.0673 24.5452L33.927 24.4027ZM33.4632 24.5712H31.8947V24.7712H33.4632V24.5712ZM30.0777 23.4513C29.6921 23.7823 29.2707 24.0604 28.8136 24.2856L28.902 24.465C29.3741 24.2324 29.8095 23.9451 30.2079 23.6031L30.0777 23.4513ZM28.8154 24.2848C27.9428 24.6932 26.857 24.9 25.554 24.9V25.1C26.8769 25.1 27.9937 24.8902 28.9002 24.4659L28.8154 24.2848ZM22.8175 4.15479C22.6163 4.15479 22.465 4.09596 22.3537 3.9863L22.2133 4.12877C22.369 4.28212 22.5744 4.35479 22.8175 4.35479V4.15479ZM22.3537 3.9863C22.2425 3.87678 22.1833 3.72879 22.1833 3.53151H21.9833C21.9833 3.77251 22.0575 3.97528 22.2133 4.12877L22.3537 3.9863ZM22.1833 3.53151V1.75617H21.9833V3.53151H22.1833ZM22.1833 1.75617C22.1833 1.55888 22.2425 1.41089 22.3537 1.30137L22.2133 1.1589C22.0575 1.31239 21.9833 1.51516 21.9833 1.75617H22.1833ZM22.3589 1.29578C22.4715 1.16643 22.6212 1.1 22.8175 1.1V0.9C22.5695 0.9 22.3625 0.987058 22.2081 1.16449L22.3589 1.29578ZM22.8175 1.1H24.6529V0.9H22.8175V1.1ZM25.3205 1.75617V3.53151H25.5205V1.75617H25.3205ZM25.3205 3.53151C25.3205 3.72362 25.2535 3.87018 25.1223 3.9812L25.2515 4.13387C25.4311 3.98188 25.5205 3.77769 25.5205 3.53151H25.3205ZM25.1167 3.9863C25.0054 4.09596 24.8541 4.15479 24.6529 4.15479V4.35479C24.896 4.35479 25.1014 4.28212 25.2571 4.12877L25.1167 3.9863ZM24.6529 4.15479H22.8175V4.35479H24.6529V4.15479ZM28.4907 4.15479C28.2898 4.15479 28.1236 4.09592 27.988 3.9812L27.8588 4.13387C28.034 4.28217 28.2474 4.35479 28.4907 4.35479V4.15479ZM27.9936 3.9863C27.8824 3.87678 27.8232 3.72879 27.8232 3.53151H27.6232C27.6232 3.77252 27.6974 3.97528 27.8532 4.12877L27.9936 3.9863ZM27.8232 3.53151V1.75617H27.6232V3.53151H27.8232ZM27.8232 1.75617C27.8232 1.55889 27.8824 1.4109 27.9936 1.30137L27.8532 1.1589C27.6974 1.31239 27.6232 1.51516 27.6232 1.75617H27.8232ZM27.9937 1.3013C28.1299 1.16683 28.2943 1.1 28.4907 1.1V0.9C28.2429 0.9 28.0277 0.986665 27.8532 1.15897L27.9937 1.3013ZM28.4907 1.1H30.2928V0.9H28.4907V1.1ZM30.9604 1.75617V3.53151H31.1604V1.75617H30.9604ZM30.9604 3.53151C30.9604 3.72362 30.8934 3.87018 30.7622 3.9812L30.8914 4.13387C31.071 3.98188 31.1604 3.77769 31.1604 3.53151H30.9604ZM30.7566 3.9863C30.6453 4.09596 30.494 4.15479 30.2928 4.15479V4.35479C30.5359 4.35479 30.7413 4.28212 30.897 4.12877L30.7566 3.9863ZM30.2928 4.15479H28.4907V4.35479H30.2928V4.15479ZM45.9298 24.5712C44.1899 24.5712 42.9028 24.0944 42.049 23.1573C41.1935 22.2185 40.757 20.8005 40.757 18.8849H40.557C40.557 20.8269 40.9991 22.3021 41.9011 23.292C42.8048 24.2837 44.1541 24.7712 45.9298 24.7712V24.5712ZM39.9196 10.1055H38.0539V10.3055H39.9196V10.1055ZM37.3864 9.44932V8.33151H37.1864V9.44932H37.3864ZM37.3864 8.33151C37.3864 8.13423 37.4456 7.98624 37.5568 7.87672L37.4164 7.73425C37.2606 7.88774 37.1864 8.0905 37.1864 8.33151H37.3864ZM37.5569 7.87665C37.6931 7.74218 37.8575 7.67535 38.0539 7.67535V7.47535C37.8061 7.47535 37.5909 7.56201 37.4164 7.73432L37.5569 7.87665ZM38.0539 7.67535H40.3013V7.47535H38.0539V7.67535ZM40.757 2.08493C40.757 1.88766 40.8162 1.73967 40.9274 1.63014L40.787 1.48767C40.6312 1.64116 40.557 1.84392 40.557 2.08493H40.757ZM40.9275 1.63007C41.0637 1.4956 41.2281 1.42877 41.4245 1.42877V1.22877C41.1767 1.22877 40.9615 1.31544 40.787 1.48774L40.9275 1.63007ZM41.4245 1.42877H42.993V1.22877H41.4245V1.42877ZM44.1162 7.67535H47.8987V7.47535H44.1162V7.67535ZM48.5663 8.33151V9.44932H48.7663V8.33151H48.5663ZM48.5663 9.44932C48.5663 9.64167 48.4988 9.80243 48.3624 9.93706L48.5029 10.0794C48.6773 9.90724 48.7663 9.69525 48.7663 9.44932H48.5663ZM48.3625 9.93699C48.2512 10.0467 48.0999 10.1055 47.8987 10.1055V10.3055C48.1418 10.3055 48.3472 10.2328 48.5029 10.0795L48.3625 9.93699ZM47.8987 10.1055H44.4979V10.3055H47.8987V10.1055ZM43.6606 18.6548C43.6606 19.7595 43.8504 20.6153 44.2446 21.2088L44.4112 21.0981C44.0483 20.5518 43.8606 19.7419 43.8606 18.6548H43.6606ZM44.2456 21.2103C44.6484 21.7932 45.3072 22.0753 46.1967 22.0753V21.8753C45.3509 21.8753 44.7646 21.6095 44.4102 21.0966L44.2456 21.2103ZM46.1967 22.0753H48.2324V21.8753H46.1967V22.0753ZM48.9 22.7315V23.9151H49.1V22.7315H48.9ZM48.9 23.9151C48.9 24.1074 48.8325 24.2682 48.6962 24.4028L48.8367 24.5451C49.0111 24.373 49.1 24.161 49.1 23.9151H48.9ZM48.6962 24.4027C48.5849 24.5124 48.4336 24.5712 48.2324 24.5712V24.7712C48.4755 24.7712 48.6809 24.6986 48.8366 24.5452L48.6962 24.4027ZM48.2324 24.5712H45.9298V24.7712H48.2324V24.5712ZM40.757 18.8849V10.9407H40.557V18.8849H40.757ZM43.6606 10.9407V18.6548H43.8606V10.9407H43.6606ZM40.757 7.2207V2.08493H40.557V7.2207H40.757ZM43.6606 2.08493V7.2207H43.8606V2.08493H43.6606ZM44.4979 10.1055C44.0357 10.1055 43.6606 10.4791 43.6606 10.9407H43.8606C43.8606 10.5901 44.1457 10.3055 44.4979 10.3055V10.1055ZM47.8987 7.67535C48.0674 7.67535 48.235 7.75221 48.3615 7.87624C48.4879 8.00026 48.5663 8.16465 48.5663 8.33151H48.7663C48.7663 8.10218 48.6596 7.88849 48.5015 7.73347C48.3435 7.57847 48.1274 7.47535 47.8987 7.47535V7.67535ZM44.1162 7.47535C43.9748 7.47535 43.8606 7.36107 43.8606 7.2207H43.6606C43.6606 7.47206 43.8649 7.67535 44.1162 7.67535V7.47535ZM42.993 1.42877C43.1617 1.42877 43.3293 1.50564 43.4558 1.62967C43.5822 1.75368 43.6606 1.91807 43.6606 2.08493H43.8606C43.8606 1.85561 43.7539 1.64191 43.5958 1.48689C43.4378 1.33189 43.2217 1.22877 42.993 1.22877V1.42877ZM24.6529 1.1C24.8216 1.1 24.9892 1.17687 25.1157 1.3009C25.2421 1.42492 25.3205 1.58931 25.3205 1.75617H25.5205C25.5205 1.52684 25.4138 1.31314 25.2557 1.15813C25.0977 1.00312 24.8816 0.9 24.6529 0.9V1.1ZM31.2271 23.9151C31.2271 23.6322 31.0323 23.429 30.8021 23.3415C30.5727 23.2542 30.2862 23.2723 30.0777 23.4513L30.2079 23.6031C30.3504 23.4808 30.5561 23.4619 30.731 23.5285C30.9053 23.5947 31.0271 23.7362 31.0271 23.9151H31.2271ZM31.8947 24.5712C31.5429 24.5712 31.2271 24.2621 31.2271 23.9151H31.0271C31.0271 24.3762 31.4361 24.7712 31.8947 24.7712V24.5712ZM21.3491 7.67535C21.5178 7.67535 21.6854 7.75221 21.8118 7.87624C21.9383 8.00026 22.0167 8.16465 22.0167 8.33151H22.2167C22.2167 8.10218 22.1099 7.88849 21.9519 7.73347C21.7939 7.57847 21.5778 7.47535 21.3491 7.47535V7.67535ZM30.2928 1.1C30.4615 1.1 30.6291 1.17687 30.7556 1.3009C30.882 1.42492 30.9604 1.5893 30.9604 1.75617H31.1604C31.1604 1.52684 31.0537 1.31314 30.8956 1.15813C30.7376 1.00312 30.5215 0.9 30.2928 0.9V1.1ZM38.0539 10.1055C37.7021 10.1055 37.3864 9.79633 37.3864 9.44932H37.1864C37.1864 9.91041 37.5953 10.3055 38.0539 10.3055V10.1055ZM39.9196 10.3055C40.2719 10.3055 40.557 10.5901 40.557 10.9407H40.757C40.757 10.4791 40.3818 10.1055 39.9196 10.1055V10.3055ZM40.3013 7.67535C40.5527 7.67535 40.757 7.47206 40.757 7.2207H40.557C40.557 7.36107 40.4428 7.47535 40.3013 7.47535V7.67535ZM48.2324 22.0753C48.4011 22.0753 48.5688 22.1522 48.6952 22.2762C48.8216 22.4003 48.9 22.5646 48.9 22.7315H49.1C49.1 22.5022 48.9933 22.2885 48.8352 22.1335C48.6772 21.9785 48.4611 21.8753 48.2324 21.8753V22.0753Z" fill="white" mask="url(#path-1-outside-1)"/>
</svg>
